name C:\Users\u0101727\Documents\MyRepositories\upper-imu-dc\Results\main_tracking\Case_32\ABD01_orientations_groundFrame.mot
datacolumns 13
datarows 21
range 8.06000000 8.26000000
endheader 
time	radius_imu_[0][0]	radius_imu_[0][1]	radius_imu_[0][2]	radius_imu_[1][0]	radius_imu_[1][1]	radius_imu_[1][2]	radius_imu_[2][0]	radius_imu_[2][1]	radius_imu_[2][2]	radius_imu_x	radius_imu_y	radius_imu_z	
          8.06000000	          0.98833597	         -0.07418938	          0.13299604	         -0.14904210	         -0.29183344	          0.94478553	         -0.03128036	         -0.95358753	         -0.29948683	         -1.87776578	          0.13339126	          0.07492442	
          8.07000000	          0.98734296	         -0.07255809	          0.14102908	         -0.15581341	         -0.27781823	          0.94791308	         -0.02959831	         -0.95788953	         -0.28560740	         -1.86344651	          0.14150081	          0.07335637	
          8.08000000	          0.98646023	         -0.07067007	          0.14799310	         -0.16156498	         -0.26381996	          0.95094468	         -0.02815980	         -0.96197961	         -0.27166571	         -1.84906412	          0.14853871	          0.07151788	
          8.09000000	          0.98568778	         -0.06854118	          0.15401853	         -0.16642271	         -0.24989682	          0.95386323	         -0.02689017	         -0.96584351	         -0.25772705	         -1.83468792	          0.15463405	          0.06942464	
          8.10000000	          0.98501536	         -0.06618762	          0.15926058	         -0.17053852	         -0.23610068	          0.95664679	         -0.02571665	         -0.96947185	         -0.24385034	         -1.82038247	          0.15994163	          0.06709365	
          8.11000000	          0.98442925	         -0.06362759	          0.16386144	         -0.17405394	         -0.22247197	          0.95927652	         -0.02458187	         -0.97286060	         -0.23008254	         -1.80619954	          0.16460374	          0.06454421	
          8.12000000	          0.98392052	         -0.06088361	          0.16790946	         -0.17706002	         -0.20903666	          0.96174499	         -0.02345528	         -0.97601069	         -0.21645551	         -1.79217301	          0.16870864	          0.06179979	
          8.13000000	          0.98349379	         -0.05798512	          0.17139919	         -0.17955737	         -0.19580411	          0.96406426	         -0.02234072	         -0.97892721	         -0.20298378	         -1.77831528	          0.17224971	          0.05889013	
          8.14000000	          0.98317495	         -0.05496954	          0.17419924	         -0.18142289	         -0.18276438	          0.96627269	         -0.02127814	         -0.98161883	         -0.18966210	         -1.76461450	          0.17509252	          0.05585208	
          8.15000000	          0.98301533	         -0.05188092	          0.17603756	         -0.18239313	         -0.16988592	          0.96843767	         -0.02033714	         -0.98409712	         -0.17646319	         -1.75103324	          0.17695969	          0.05272841	
          8.16000000	          0.98308951	         -0.04876621	          0.17651309	         -0.18207353	         -0.15711523	          0.97065134	         -0.01960209	         -0.98637552	         -0.16333737	         -1.73751048	          0.17744278	          0.04956443	
          8.17000000	          0.98348422	         -0.04567029	          0.17513713	         -0.17997780	         -0.14438057	          0.97301708	         -0.01915158	         -0.98846774	         -0.15021565	         -1.72396839	          0.17604505	          0.04640390	
          8.18000000	          0.98427826	         -0.04263185	          0.17140256	         -0.17559595	         -0.13160005	          0.97562672	         -0.01903619	         -0.99038576	         -0.13701705	         -1.71032381	          0.17225312	          0.04328575	
          8.19000000	          0.98551580	         -0.03968094	          0.16487578	         -0.16848644	         -0.11869393	          0.97853159	         -0.01925930	         -0.99213768	         -0.12366044	         -1.69650344	          0.16563207	          0.04024240	
          8.20000000	          0.98717956	         -0.03683822	          0.15530444	         -0.15838524	         -0.10559940	          0.98171426	         -0.01976456	         -0.99372618	         -0.11008020	         -1.68246048	          0.15593562	          0.03729933	
          8.21000000	          0.98917377	         -0.03411482	          0.14272851	         -0.14531934	         -0.09228558	          0.98507140	         -0.02043375	         -0.99514800	         -0.09624402	         -1.66818980	          0.14321760	          0.03447453	
          8.22000000	          0.99132846	         -0.03151172	          0.12757312	         -0.12970252	         -0.07876518	          0.98841960	         -0.02109848	         -0.99639503	         -0.08216932	         -1.65373763	          0.12792172	          0.03177666	
          8.23000000	          0.99343112	         -0.02901835	          0.11069125	         -0.11238103	         -0.06509912	          0.99153044	         -0.02156667	         -0.99745679	         -0.06793261	         -1.63920231	          0.11091855	          0.02920192	
          8.24000000	          0.99528034	         -0.02661144	          0.09332131	         -0.09459302	         -0.05139095	          0.99418868	         -0.02166093	         -0.99832400	         -0.05366566	         -1.62472334	          0.09345730	          0.02673127	
          8.25000000	          0.99674072	         -0.02425650	          0.07693864	         -0.07782006	         -0.03777018	          0.99625170	         -0.02125959	         -0.99899201	         -0.03953472	         -1.61045898	          0.07701475	          0.02433101	
          8.26000000	          0.99777182	         -0.02191373	          0.06301727	         -0.06354673	         -0.02436793	          0.99768132	         -0.02032732	         -0.99946285	         -0.02570618	         -1.59655655	          0.06305905	          0.02195914	
